# xmcd
#
# Track frame offsets:
#	150
#	14699
#	27618
#	47577
#	63662
#	84081
#	98132
#	116340
#	137390
#	155287
#	165512
#
# Disc length: 2409 seconds
#
# Revision: 0
# Processed by: cddbd v1.4PL0 Copyright (c) Steve Scherf et al.
# Submitted via: dBpowerAMP V4.0
#
DISCID=8009670b
DTITLE=Linda Mcrae - Cryin' Out Loud
DYEAR=2002
DGENRE=Folk
TTITLE0=Linda Mcrae - Strength, Hope and Love
TTITLE1=Linda Mcrae - Put the Hurtin'
TTITLE2=Linda Mcrae - The Station
TTITLE3=Linda Mcrae - Girl With No Tomorrow
TTITLE4=Linda Mcrae - Mamma
TTITLE5=Linda Mcrae - These Are the Things
TTITLE6=Linda Mcrae - Gold Dust Moutain
TTITLE7=Linda Mcrae - Hoot and Holler
TTITLE8=Linda Mcrae - Sweet Surrender
TTITLE9=Linda Mcrae - Mainline
TTITLE10=Linda Mcrae - Falling Off The Face Of The World
EXTD=
EXTT0=
EXTT1=
EXTT2=
EXTT3=
EXTT4=
EXTT5=
EXTT6=
EXTT7=
EXTT8=
EXTT9=
EXTT10=
PLAYORDER=
